<svg xmlns="http://www.w3.org/2000/svg" width="2133.333" height="2133.333" version="1" viewBox="0 0 1600 1600"><path d="M1007.8 3C954.5 7.1 908.6 17.4 862 35.5c-14.4 5.6-17.6 7-33.5 14.4-15.6 7.2-43.5 22.1-46.6 24.7-.8.8-1.8 1.4-2.2 1.4-.3 0-4.4 2.4-8.9 5.2-73.7 46.5-140.7 111.7-190 184.9-43.3 64.2-71.8 135.9-83.3 209.4-1.4 8.4-5 20.9-8.5 29-.5 1.1-3.8 10.3-7.5 20.5-3.6 10.2-7.5 20.7-8.5 23.5-1 2.7-3.5 9.5-5.5 15s-5.4 14.8-7.6 20.6c-2.1 5.9-3.9 11-3.9 11.4 0 .4-.6 2.1-1.4 3.8-.8 1.8-4.6 12-8.4 22.7-3.9 10.7-8.3 22.6-9.7 26.5-1.4 3.8-3.2 8.8-4 11-.7 2.2-2.9 8.3-4.8 13.5-10.2 27.9-32.2 88.4-34.2 94-1.3 3.6-6.2 17.1-11 30l-8.6 23.5-66.3 66.5c-69.4 69.6-69 69.2-71.1 79.6-1.9 9.5.7 22 6.2 29.3 1.5 2 83.5 84.4 182.2 183.2 193.6 193.6 182.9 183.4 195.6 185.6 6.6 1.1 14.8.1 21.5-2.7 4.9-2.1 12.9-9.7 72.5-69.1 44.1-43.9 68.2-67.3 70.5-68.3 3.4-1.4 20-7.4 55.5-20.2 9.9-3.6 18.9-6.9 20-7.4 1.8-.9 23.5-8.7 26-9.4.6-.2 1.7-.6 2.5-.9.8-.4 4.2-1.6 7.5-2.7 3.3-1.2 6.9-2.5 8-3 1.1-.4 5.2-1.9 9-3.3 3.9-1.4 12-4.3 18-6.5 6.1-2.2 21.1-7.7 33.5-12.2 12.4-4.5 26.6-9.7 31.5-11.5 5-1.8 15.5-5.6 23.5-8.5 8-2.8 15.4-5.5 16.5-6 3.4-1.4 11.7-4.4 49.5-18 20.1-7.3 37.4-13.5 38.5-14 1.7-.7 11.8-2.8 23-4.6 10-1.7 38.5-9.4 55.1-14.9 28.6-9.5 66.3-26 89-39 24-13.8 49.1-30.2 67.7-44.2 8.8-6.7 31.4-25 34.3-27.7.6-.6 4.9-4.5 9.5-8.6 10.9-9.7 38.3-37 48.6-48.5 31.9-35.5 58-71.6 79.8-110.5 7.4-13.1 23.4-46.9 29.3-61.5 12.7-31.8 25-75.6 28.7-102.5.3-2.5.8-5.2 1-6 .5-1.7 2.2-15.6 3.1-24.5.3-3.3.8-7.4 1.1-9 .9-5.4 1.2-65.8.3-76.1-7-82.4-30.1-156.8-70.6-227.4-18-31.2-44.9-69.4-65-92-1.7-1.9-5.5-6.2-8.4-9.5-6.9-7.8-28.7-30.1-38.2-39-27.8-26.1-61.6-51.8-96.3-73.2-29.6-18.3-70-37.5-105.5-50.2-37.9-13.6-85-24.2-122.7-27.6-4-.4-8.5-.9-10-1.1-5.5-.8-61-1.1-70.5-.4zm59.4 85.4c73.6 5.6 144.4 29.3 209.6 70 19.6 12.2 30.6 20 48.1 33.9 28.1 22.5 51.7 45.9 78.4 77.7 5.4 6.4 21.1 27.6 27.4 37 46.6 69.6 73.5 146.1 79.2 225 .9 11.5.6 50.5-.4 59-.2 2.5-.7 7-1 10-.3 3-.8 7.1-1 9-1.9 12.7-3.6 22.9-4 25-.3 1.4-1 4.7-1.5 7.5-3.4 17.1-12.4 46.7-20.6 67.3-10 25.3-30.2 63.5-45.6 85.9-5.9 8.7-20.6 28.8-23.6 32.5-1.1 1.2-5.5 6.6-9.8 11.8-11.3 13.8-14.7 17.4-35.8 38.5-28.7 28.6-50.8 47-80.6 67-28.6 19.2-55.3 33.5-85.5 46-6.1 2.5-41.6 15.3-44 15.9-.5.1-2 .8-3.2 1.4-1.3.7-2.3 1-2.3.7 0-.3-1.1.2-2.5 1.1-1.4.9-2.5 1.3-2.5.9 0-.3-1.2.2-2.7 1.3-2.4 1.6-18.4 7.8-38.3 14.9-2.5.9-5.1 2.1-5.8 2.6-.7.5-1.5.7-1.9.3-.3-.3-1.6 0-2.8.8-1.2.8-3 1.6-4.1 1.8-1 .2-2.1.6-2.4 1-.3.4-1.7.8-3 1-1.4.2-3 .7-3.6 1-.6.4-3.7 1.6-7 2.8-3.2 1.2-6.6 2.4-7.4 2.7-.8.3-2.4.8-3.4 1-1.1.2-2.4.7-3 1.2-.6.4-4.7 2-9.1 3.5-4.4 1.6-9.3 3.4-11 4.1-1.6.7-5.9 2.3-9.5 3.5-3.6 1.2-7.4 2.6-8.5 3.1-3.4 1.4-15.9 6.1-17.5 6.4-.8.2-1.5.4-1.5.5 0 .1-.7.3-1.5.5-1.4.4-20.1 7.2-31.5 11.6-2.7 1-16.2 6-30 11-13.7 5-31.7 11.5-40 14.5-18.2 6.7-16.1 5.9-27 9.9-9 3.2-88.8 32.3-91.3 33.2-.7.3-70.3-68.5-164.6-162.8L454.3 819.5l1.8-5.5c1.1-3 2.3-6.4 2.8-7.5.5-1.1 2.4-6.1 4.1-11 7.9-22.6 12-33.7 13.1-35.7.7-1.3 1.1-2.3 1-2.3-.1 0 0-.7.3-1.5s2.4-6.5 4.5-12.5c2.2-6.1 5.6-15.5 7.6-21s4.1-11.1 4.5-12.5c3.3-10.3 13.1-35.5 14-36 .6-.4 1.2-1.3 1.3-2.1.2-.8.6-2 1-2.7.5-.6.5-1.7.2-2.2-.3-.6-.1-1 .5-1s.8-.5.5-1c-.3-.6-.1-1 .5-1s.8-.5.5-1c-.3-.6-.1-1 .5-1s.8-.5.5-1c-.3-.6-.3-1.6.2-2.3.8-1.3 1-1.8 1.2-4.3 0-.8.5-1.3 1-.9.6.3.8-.4.6-1.5-.2-1.1 0-2 .4-2 .9 0 2.6-7.2 1.9-7.8-.1-.2.5-.8 1.6-1.4 1.5-.8 1.6-1.2.5-1.9-1-.6-1-.9-.2-.9.7 0 1.5-1.6 1.9-3.5.3-1.9 1-3.5 1.6-3.5.5 0 .7-.4.4-.8-.3-.5.1-2 .9-3.5s1.2-2.7.9-2.7c-.3 0-.2-.6.3-1.3.4-.6.8-1.9 1-2.7.1-.8.7-1.6 1.3-1.8.5-.2.8-.7.5-1.2-.3-.5-.1-1.9.4-3.2 1.2-3 2.4-6.1 2.6-7.1.2-.4.4-.9.5-1.2.1-.3.3-.8.5-1.3.1-.4.5-1.5.9-2.4.4-.9.9-2.2 1-3 .7-3.2 2.7-6.8 3.8-6.8.9 0 .9-.3-.1-.9-1.1-.7-1.2-1.3-.4-2.3.6-.7 1.3-2.6 1.7-4.1.4-1.5 1.1-2.5 1.6-2.2.5.3.7 0 .5-.8-.3-.7.1-2.9.9-4.9.8-1.9 1.2-3.8.9-4.2-.4-.3-.2-.6.4-.6.9 0 2.6-5.4 2-6.4-.1-.1.4-1 1.2-1.9.7-1 1-1.7.5-1.7-.4 0 .1-.7 1.2-1.6 1-.8 1.2-1.2.4-.8-1.3.7-1.3.5-.1-.9.7-.9 1-1.7.6-1.7s0-1.1.9-2.5 1.4-2.5 1-2.5c-.4 0-.1-.7.6-1.5s1-1.5.6-1.5 0-1.3.8-2.9c.9-1.6 1.2-3.1.9-3.5-.4-.3-.2-.6.3-.6s1-1 1.1-2.2c.1-1.1.8-2.5 1.5-2.9.7-.4.9-1.1.6-1.5-.4-.4-.2-1.6.4-2.8.7-1.1 1.3-3 1.5-4.1.2-1.1.8-2.4 1.3-2.9.6-.6 1-1.8 1-2.7 0-.9.7-2.9 1.4-4.5.8-1.5 1.3-3.1 1-3.6-.3-.4 0-.8.6-.8s.9-.4.6-.8c-.2-.4.1-2.1.9-3.7 1.3-3.1 2.7-6.4 3-7.8.2-.4.4-.9.5-1.2.1-.3.4-1 .5-1.5.1-.6.4-1.3.5-1.8.1-.4.2-1 .1-1.5 0-.4.4-.7.9-.7s.9-.3.8-.8c-.1-.4.4-2.3 1.1-4.2.8-1.9 1.5-4.2 1.7-5 1-4.4 4.2-11.9 4.8-11.3.4.4.4 0 0-1-.3-.9-.2-1.7.2-1.7.5 0 1-1.2 1.1-2.6 0-1.5.7-3 1.3-3.4.7-.4 1-1.2.6-1.8-.3-.6-.2-1.3.4-1.7.5-.3 1-1.2 1-2s.5-2.6 1.2-4.2c.6-1.5 1.2-3.3 1.4-3.8.1-.6 1.4-4.3 2.8-8.3 1.3-3.9 2.3-7.2 2.1-7.2-.9 0 9.8-29.8 15.2-42.5 15.5-36.6 33.4-67.9 57.6-100.5 5.5-7.4 10.3-13.7 10.6-14 .3-.3 3.2-3.7 6.3-7.7 14.6-18.2 41.6-46.1 63.4-65.4 58.7-52 123.6-87.6 191.8-105.4 17.5-4.6 39.7-8.8 53.1-10 2.8-.3 5.9-.7 7-1 1.1-.2 8.1-.7 15.5-1.1 7.4-.3 13.6-.7 13.7-.9.6-.4 31.6.3 39.5.9z"/><path d="M1050.7 167.6c-.1.1-4.7.5-10.2.9-5.5.3-11.6.9-13.5 1.1-3.7.6-4.8.7-15.3 2.4-7.6 1.2-30.4 6.9-38.2 9.5-22.5 7.7-46.8 19.4-65.6 31.8-12.7 8.4-13.5 11.6-5.8 22.8 2.7 4.1 6.6 9.7 8.5 12.5 3.6 5.4 8 8.1 12.2 7.5 1.3-.1 6.1-2.7 10.5-5.6 25.2-16.4 57.2-29.2 85.2-34 6-1 16.8-2.5 22.2-3 8.1-.7 33.4-.8 39.8 0 2.8.3 7 .8 9.5 1 13.1 1.4 38.4 7.3 48 11.2.8.4 1.7.7 2 .7.3.1 2.1.7 4 1.5 22.6 8.6 51.2 25.1 64.9 37.4 7.2 6.4 12.2 8 16.7 5.4 1.2-.7 5.4-5 9.4-9.7 4.1-4.7 7.6-8.7 8-9 2.1-1.7 4-6 4-9.1 0-4.6-3.1-7.9-17.6-18.7-44.1-33.1-95.4-52.2-149.9-55.8-9-.6-28.4-1.1-28.8-.8zM846.5 257c-1.1.4-3.8 2.5-6 4.5-30 27.8-30.1 27.9-30.9 31.6-.9 4.6.5 6.7 11.5 17.8 16.6 16.5 14.6 17 41.5-8.5 14.7-13.8 16.4-16.5 14.5-21.7-1-2.7-21.8-23.7-23.5-23.8-.6 0-2-.2-3.1-.4s-2.9 0-4 .5zM208.5 1005c-1.6.3-4.1 1.2-5.5 2-4.6 2.4-51.9 50.2-54 54.5-3.4 7-1.8 16.4 3.7 22 4.4 4.4 212.9 211.4 245.3 243.5 19.2 19 54.6 54.1 78.7 78.1 37.6 37.4 44.4 43.8 48.3 45 5 1.7 8.3 1.6 13.8-.2 5-1.6 53.2-49.3 56.3-55.6 2.5-5.2 2.2-13.6-.6-18.1-1-1.5-18.3-19.1-38.6-39.2-20.2-20.1-81.8-81.3-136.9-136-171.6-170.5-194.4-192.9-197.5-194.4-3.9-1.8-9.2-2.5-13-1.6zM121.8 1105c-5.4 1.6-9.6 5.3-34 29.7-26.8 27-27.8 28.4-26.3 37.7.8 5.2 2 7.4 7.1 12.8 4.1 4.2 165.1 164.2 242.4 240.8 22 21.7 58.6 58.1 81.4 80.8 28.2 28.1 42.6 41.7 45.2 42.8 4.8 2 11 2 15.9 0 5.2-2.2 53-49.5 55.6-55.1 2.3-4.9 2.4-11.3.4-16.2-1.1-2.5-15.3-17.3-44-45.7-23.3-23.2-83.4-82.8-133.5-132.6-170.4-169.2-193.5-192-196.6-193.5-3.9-1.8-10.1-2.5-13.6-1.5zM59.6 1234.4c-4.4 1.7-3.4.7-31.6 28.7-12 11.8-22.5 23-23.5 24.9-2.5 4.9-2.7 11.8-.5 16.8 1.8 4 17.5 19.9 130.5 131.7 18.9 18.7 62.7 62.1 97.4 96.4 37.2 36.9 64.3 63 66.3 63.9 4.3 1.8 11.4 1.8 15.8 0 4.9-2.1 52.5-49.3 54.5-54.1 2.1-5 1.9-12-.4-16.6-1.9-3.6-27.1-29.1-108.8-109.8-18.8-18.6-67.1-66.4-107.3-106.3-40.2-39.9-74.7-73.3-76.6-74.4-4.7-2.5-11-3-15.8-1.2z"/></svg>