<svg xmlns="http://www.w3.org/2000/svg" width="2133.333" height="2133.333" version="1" viewBox="0 0 1600 1600"><path d="M323.2 323.3L0 646.5l.2 70.3.3 70.2L394 393.5 787.5 0h-141L323.2 323.3zM1093 210.7l-52.5 2.5L923 330.6 805.5 448l29.8 29.7 29.7 29.8 101.3-101.3L1067.5 305l18.8-1.3 18.7-1.2 21.1 21.1 21 21.1-1.1 30.4-1.2 30.4-66.9 67-66.8 67-2.6 67-2.5 67-23.5 23.5-23.5 23.5L852.5 614 746 507.5l-38.2 38.2-38.1 38.1 2.4 220.6 2.4 220.6 24.8 24.8 24.7 24.7 112.3-112.3C898 900.5 949 850 949.5 850s17.5 16.5 37.7 36.7l36.8 36.8 34.5-34.5 34.5-34.5-37.2-37.2-37.3-37.3 23.5-23.5 23.5-23.5 37.2 37.2 37.3 37.3 148-148c81.4-81.4 148-148.4 148-149 0-.5-13.2-14.2-29.2-30.2l-29.3-29.3-113.7 113.7L1150 678.5l-24.9-25-25-25 1.3-30.9 1.3-30.8 66.8-66.8 66.9-66.9 2.4-66.6 2.5-66.7-45.9-45.9c-32-32-46.5-45.9-47.9-45.8-1.1.1-25.6 1.3-54.5 2.6zM823.8 723.3l66.2 66.2-65.4 65.4-65.3 65.3-.7-32.3c-.3-17.8-.8-70.2-1.1-116.4-.3-46.2-.8-90.9-1.1-99.3-.3-8.3-.2-15.2.3-15.2.4 0 30.6 29.8 67.1 66.3z"/><path d="M305.5 949l-148 148L331 1270.5 504.5 1444l151-151 151-151-29.8-29.7-29.7-29.8L630.5 1199 514 1315.5l-42.2-42.3-42.3-42.2 86.8-86.8 86.7-86.7-29.5-29.5-29.5-29.5-86.3 86.3c-47.4 47.4-86.7 86.2-87.2 86.2-1.3 0-83.5-82.2-83.5-83.5 0-.6 51.1-52.1 113.5-114.5L514 859.5l-29.2-29.2c-16.1-16.1-29.7-29.3-30.3-29.3-.5 0-67.6 66.6-149 148zM1203 1203.5L806.5 1600h141l326.3-326.3L1600 947.5l-.2-70.3-.3-70.2-396.5 396.5z"/></svg>