<svg xmlns="http://www.w3.org/2000/svg" width="682.667" height="682.667" preserveAspectRatio="xMidYMid meet" version="1.0" viewBox="0 0 512 512"><metadata>Created by potrace 1.11, written by Peter Selinger 2001-2013</metadata><g fill="#000" stroke="none"><path d="M3100 2734 c-195 -57 -196 -57 -248 -69 -39 -9 -40 -36 -2 -41 14 -2 46 -7 71 -12 55 -11 40 -14 236 44 l163 47 282 -72 c156 -39 495 -125 753 -192 l470 -120 143 -1 c78 0 145 2 148 5 3 3 -3 10 -13 15 -14 8 -880 232 -953 247 -14 3 -245 62 -545 140 -77 20 -153 39 -169 42 -16 2 -40 9 -53 14 -44 17 -97 8 -283 -47z" transform="translate(0.000000,512.000000) scale(0.100000,-0.100000)"/><path d="M992 2557 c-933 -235 -954 -242 -702 -240 l135 1 725 182 c772 193 746 189 870 155 36 -9 72 -18 80 -20 15 -4 262 -67 430 -111 52 -14 183 -47 290 -75 107 -27 265 -68 350 -91 148 -39 162 -41 303 -41 130 0 171 4 156 16 -2 2 -85 24 -184 49 -99 26 -297 76 -440 113 -143 37 -268 69 -277 71 -28 6 -48 11 -128 33 -41 11 -165 43 -275 71 -110 29 -234 61 -275 72 -159 43 -123 50 -1058 -185z" transform="translate(0.000000,512.000000) scale(0.100000,-0.100000)"/></g></svg>